HIERARCHY
ROOT root
{
	OFFSET	0	13.1	24.9
	CHANNELS 6  Xposition Yposition Zposition Xrotation Yrotation Zrotation
	JOINT spine_1
	{
		OFFSET	0	9.99999	0
		CHANNELS 3  Xrotation Yrotation Zrotation
		JOINT spine_2
		{
			OFFSET	0	112	-10
			CHANNELS 3  Xrotation Yrotation Zrotation
			JOINT spine_3
			{
				OFFSET	0	206.5	19.3
				CHANNELS 3  Xrotation Yrotation Zrotation
				JOINT spine_4
				{
					OFFSET	0	110.4	14.6
					CHANNELS 3  Xrotation Yrotation Zrotation
					JOINT neck_1
					{
						OFFSET	0	71.8	-50.3
						CHANNELS 3  Xrotation Yrotation Zrotation
						JOINT neck_2
						{
							OFFSET	0	86.2	-25.8
							CHANNELS 3  Xrotation Yrotation Zrotation
							JOINT head_ee
							{
								OFFSET	0	179.8	-8.7
								CHANNELS 3  Xrotation Yrotation Zrotation
								End Site
								{
									OFFSET	1	0	0
								}
							}
						}
					}
					JOINT left_clavicle
					{
						OFFSET	-43.2	22.4	-70.8
						CHANNELS 3  Xrotation Yrotation Zrotation
						JOINT left_shoulder
						{
							OFFSET	-93.9	-5.79999	48.7
							CHANNELS 3  Xrotation Yrotation Zrotation
							JOINT left_elbow
							{
								OFFSET	-291.4	-30.8	15.2
								CHANNELS 3  Xrotation Yrotation Zrotation
								JOINT left_lowarm_twist
								{
									OFFSET	-110.7	-3.89999	13.6
									CHANNELS 3  Xrotation Yrotation Zrotation
									JOINT left_hand
									{
										OFFSET	-110.7	-3.89999	13.6
										CHANNELS 3  Xrotation Yrotation Zrotation
										JOINT left_ee
										{
											OFFSET	-80.8	-5.10001	12.1
											CHANNELS 3  Xrotation Yrotation Zrotation
											End Site
											{
												OFFSET	1	0	0
											}
										}
									}
								}
							}
						}
					}
					JOINT right_clavicle
					{
						OFFSET	43.2	22.4	-70.8
						CHANNELS 3  Xrotation Yrotation Zrotation
						JOINT right_shoulder
						{
							OFFSET	93.9	-5.79999	48.7
							CHANNELS 3  Xrotation Yrotation Zrotation
							JOINT right_elbow
							{
								OFFSET	291.4	-30.8	15.2
								CHANNELS 3  Xrotation Yrotation Zrotation
								JOINT right_lowarm_twist
								{
									OFFSET	110.7	-3.89999	13.6
									CHANNELS 3  Xrotation Yrotation Zrotation
									JOINT right_hand
									{
										OFFSET	110.7	-3.89999	13.6
										CHANNELS 3  Xrotation Yrotation Zrotation
										JOINT right_ee
										{
											OFFSET	80.8	-5.10001	12.1
											CHANNELS 3  Xrotation Yrotation Zrotation
											End Site
											{
												OFFSET	1	0	0
											}
										}
									}
								}
							}
						}
					}
				}
			}
		}
	}
	JOINT left_hip
	{
		OFFSET	-82.8	-127.5	0.300001
		CHANNELS 3  Xrotation Yrotation Zrotation
		JOINT left_knee
		{
			OFFSET	-28.2	-396.7	2.2
			CHANNELS 3  Xrotation Yrotation Zrotation
			JOINT left_ankle
			{
				OFFSET	-11.7	-411.3	35.4
				CHANNELS 3  Xrotation Yrotation Zrotation
				JOINT left_toes
				{
					OFFSET	0	-60	-88.6
					CHANNELS 3  Xrotation Yrotation Zrotation
					JOINT left_foot_ee
					{
						OFFSET	-22.5	-16.5	-42.2
						CHANNELS 3  Xrotation Yrotation Zrotation
						End Site
						{
							OFFSET	1	0	0
						}
					}
				}
			}
		}
	}
	JOINT right_hip
	{
		OFFSET	82.8	-127.5	0.300001
		CHANNELS 3  Xrotation Yrotation Zrotation
		JOINT right_knee
		{
			OFFSET	28.2	-396.7	2.2
			CHANNELS 3  Xrotation Yrotation Zrotation
			JOINT right_ankle
			{
				OFFSET	11.7	-411.3	35.4
				CHANNELS 3  Xrotation Yrotation Zrotation
				JOINT right_toes
				{
					OFFSET	0	-60	-88.6
					CHANNELS 3  Xrotation Yrotation Zrotation
					JOINT right_foot_ee
					{
						OFFSET	22.5	-16.5	-42.2
						CHANNELS 3  Xrotation Yrotation Zrotation
						End Site
						{
							OFFSET	1	0	0
						}
					}
				}
			}
		}
	}
}
MOTION
Frames: 7
Frame Time: 0.02
1372.05 701.618 -1475.22 5.65534336413 68.3461227247 -5.59775175839 -2.66754 -0.240814 -0.51941 -2.66742 -0.207275 -0.53368 -2.66525 -0.0640979 -0.568918 -2.66566 -0.153142 -0.551656 -9.99736 2.05568 6.18827 -9.8893 -0.32065 6.544 -0.0 0.0 -0.0 1.902 -7.45615 2.99518 18.5822 2.17275 60.0079 2.72558 -53.4651 1.37296 -69.4364 -6.47411 5.29684 -3.58984 -0.234199 -24.8838 -0.0 0.0 -0.0 3.83321 19.8119 -5.93619 -20.2357 14.8218 -67.7746 0.209808 5.93374 -0.0108739 41.6677 0.438835 5.18905 0.885935 -16.3684 -12.1944 0.0 0.0 0.0 -19.5236 -23.3272 13.1116 0.222177 -0.00921239 -0.0328502 20.5191 28.4835 -3.00115 -40.1342 0.0 0.0 -0.0 0.0 -0.0 30.0946 4.16443 -3.34618 0.948284 0.0402088 0.139962 2.57014 -20.7388 0.382673 -21.0851 0.0 0.0 0.0 0.0 0.0 
1300.56548788 700.51 -1493.5574032 7.10592495522 68.6851082317 -8.20082390079 -3.1791 -0.00343417 -0.499795 -3.17896 0.0283756 -0.499 -3.17905 0.159144 -0.473794 -3.17936 0.0823205 -0.492981 -12.0543 1.46345 5.14589 -11.9797 -0.536789 5.3562 -0.0 0.0 -0.0 2.15453 -8.4589 3.41936 13.5902 3.64831 62.7411 2.36135 -49.4661 1.08787 -67.7135 -6.25462 5.27588 -4.06879 1.79495 -27.3473 -0.0 0.0 -0.0 4.03755 20.4587 -6.31648 -15.1069 16.2343 -66.9826 0.242564 6.85193 -0.0145213 41.7475 0.443261 5.19824 0.116705 -18.5024 -8.21163 0.0 0.0 0.0 -20.2082 -23.4293 12.6965 -4.95209 0.171982 0.740305 21.9455 22.9314 -3.08787 -39.8688 0.0 0.0 -0.0 0.0 -0.0 30.5495 4.50365 -3.25087 -11.7049 -0.302254 -1.76775 4.05341 -20.3531 0.600364 -15.4007 0.0 0.0 0.0 0.0 0.0 
1265.35540539 701.628 -1501.43281902 12.3012366356 67.6440995033 -13.6785694786 -3.57953 0.0404486 -0.2422 -3.5795 0.0557784 -0.239135 -3.57971 0.118455 -0.215094 -3.57976 0.0829981 -0.231102 -11.0301 0.990182 4.36501 -10.9764 -1.01042 4.48631 -0.0 0.0 -0.0 2.06549 -8.07165 3.27227 11.2201 3.65167 63.2586 2.03932 -45.2861 0.850761 -68.9506 -6.41217 5.29161 -4.16418 -3.24408 -30.858 -0.0 0.0 -0.0 3.73407 20.436 -5.66409 -13.935 16.9705 -67.2974 0.407923 11.4243 -0.0408037 39.3094 0.31383 4.91455 -0.138344 -22.9884 -8.38276 0.0 0.0 0.0 -19.6202 -21.8716 13.9652 -13.4774 0.316313 2.03935 25.1212 23.3662 -3.49172 -37.1075 0.0 0.0 -0.0 0.0 -0.0 29.5478 3.73717 -2.86479 -24.2259 -0.22159 -3.68344 -3.15201 -15.6784 -0.468138 -13.9709 0.0 0.0 0.0 0.0 0.0 
1265.62062257 701.628 -1502.48969051 12.0142078167 67.088593155 -13.3675941662 -3.57953 0.0404486 -0.2422 -3.5795 0.0557784 -0.239135 -3.57971 0.118455 -0.215094 -3.57976 0.0829981 -0.231102 -11.0301 0.990182 4.36501 -10.9764 -1.01042 4.48631 -0.0 0.0 -0.0 2.06549 -8.07165 3.27227 11.2201 3.65167 63.2586 2.03932 -45.2861 0.850761 -68.9506 -6.41217 5.29161 -4.16418 -3.24408 -30.858 -0.0 0.0 -0.0 3.73407 20.436 -5.66409 -13.935 16.9705 -67.2974 0.407923 11.4243 -0.0408037 39.3094 0.31383 4.91455 -0.138344 -22.9884 -8.38276 0.0 0.0 0.0 -19.6202 -21.8716 13.9652 -13.4774 0.316313 2.03935 25.1212 23.3662 -3.49172 -37.1075 0.0 0.0 -0.0 0.0 -0.0 29.5478 3.73717 -2.86479 -24.2259 -0.22159 -3.68344 -3.15201 -15.6784 -0.468138 -13.9709 0.0 0.0 0.0 0.0 0.0 
1243.63414132 706.816 -1504.67531816 16.4887507855 64.9041454623 -17.233575087 -4.26062 0.117401 -0.218775 -4.2606 0.131084 -0.210861 -4.26109 0.185268 -0.165291 -4.2611 0.156838 -0.192477 -11.0493 1.79854 3.51383 -11.0152 1.08083 3.87553 -0.0 0.0 -0.0 2.28586 -8.73913 3.66377 8.876 3.75988 64.4379 1.80414 -41.7838 0.688691 -69.1111 -6.43263 5.29339 -4.03889 -4.31645 -30.4454 -0.0 0.0 -0.0 3.74713 23.1513 -5.42971 -12.7099 17.6373 -67.1794 0.487253 13.5702 -0.0579732 38.9376 0.295163 4.87083 -0.332985 -24.5458 -7.84937 0.0 0.0 0.0 -17.9475 -19.9161 15.113 -23.4933 0.237827 3.5722 28.3522 19.6753 -3.81199 -34.0037 0.0 0.0 -0.0 0.0 -0.0 28.1528 3.43414 -2.52816 -30.2526 -0.0343103 -4.58897 -4.27733 -13.5876 -0.63418 -10.9489 0.0 0.0 0.0 0.0 0.0 
1244.10092059 706.816 -1506.64103765 15.974247981 64.0605257677 -16.6634752023 -4.26062 0.117401 -0.218775 -4.2606 0.131084 -0.210861 -4.26109 0.185268 -0.165291 -4.2611 0.156838 -0.192477 -11.0493 1.79854 3.51383 -11.0152 1.08083 3.87553 -0.0 0.0 -0.0 2.28586 -8.73913 3.66377 8.876 3.75988 64.4379 1.80414 -41.7838 0.688691 -69.1111 -6.43263 5.29339 -4.03889 -4.31645 -30.4454 -0.0 0.0 -0.0 3.74713 23.1513 -5.42971 -12.7099 17.6373 -67.1794 0.487253 13.5702 -0.0579732 38.9376 0.295163 4.87083 -0.332985 -24.5458 -7.84937 0.0 0.0 0.0 -17.9475 -19.9161 15.113 -23.4933 0.237827 3.5722 28.3522 19.6753 -3.81199 -34.0037 0.0 0.0 -0.0 0.0 -0.0 28.1528 3.43414 -2.52816 -30.2526 -0.0343103 -4.58897 -4.27733 -13.5876 -0.63418 -10.9489 0.0 0.0 0.0 0.0 0.0 
1197.49361322 710.139 -1510.32835156 21.3441824361 62.9885595907 -22.5189628049 -5.16647 0.0415823 0.0168675 -5.16648 0.0404247 0.0194793 -5.16646 0.0328038 0.0306189 -5.16646 0.0372277 0.0250539 -11.1804 4.95186 3.50652 -11.1691 7.05967 4.71108 -0.0 0.0 -0.0 2.43849 -9.16018 3.94041 5.5582 3.13409 67.2715 1.42306 -35.1796 0.451164 -71.2561 -6.70642 5.31176 -3.93859 -5.94183 -30.4995 -0.0 0.0 -0.0 3.60925 27.8938 -4.64334 -8.65825 18.2275 -66.6686 0.543993 15.0819 -0.072014 37.4597 0.223771 4.69585 -1.08374 -28.8965 -5.41569 0.0 0.0 0.0 -14.9139 -14.8917 14.8806 -36.5644 -0.262786 5.51131 27.0005 8.41081 -3.56114 -30.2581 0.0 0.0 -0.0 0.0 -0.0 24.5589 8.57137 -2.27736 -35.2052 0.190232 -5.31549 -4.97816 -6.30037 -0.736814 -7.76426 0.0 0.0 0.0 0.0 0.0 
